<svg xmlns="http://www.w3.org/2000/svg" width="1000" height="450"><rect width="100%" height="100%" style="fill: white;"></rect><text transform="translate(150,0)" x="50" y="50" font-size="24px">Node and D3 Bar chart</text><g transform="translate(100,100)"></g><g transform="translate(50,410)" fill="none" font-size="10" font-family="sans-serif" text-anchor="middle"><path class="domain" stroke="currentColor" d="M0.5,6V0.5H990.5V6"></path><g class="tick" opacity="1" transform="translate(128.33333333333337,0)"><line stroke="currentColor" y2="6"></line><text fill="currentColor" y="9" dy="0.71em">2020</text></g><g class="tick" opacity="1" transform="translate(311.66666666666674,0)"><line stroke="currentColor" y2="6"></line><text fill="currentColor" y="9" dy="0.71em">2019</text></g><g class="tick" opacity="1" transform="translate(495.00000000000006,0)"><line stroke="currentColor" y2="6"></line><text fill="currentColor" y="9" dy="0.71em">2018</text></g><g class="tick" opacity="1" transform="translate(678.3333333333334,0)"><line stroke="currentColor" y2="6"></line><text fill="currentColor" y="9" dy="0.71em">2017</text></g><g class="tick" opacity="1" transform="translate(861.6666666666667,0)"><line stroke="currentColor" y2="6"></line><text fill="currentColor" y="9" dy="0.71em">2016</text></g><text y="30" x="490" text-anchor="end" stroke="black" font-size="20px">Year</text></g><g transform="translate(50,0)" fill="none" font-size="10" font-family="sans-serif" text-anchor="end"><path class="domain" stroke="currentColor" d="M-6,410.5H0.5V0.5H-6"></path><g class="tick" opacity="1" transform="translate(0,410.5)"><line stroke="currentColor" x2="-6"></line><text fill="currentColor" x="-9" dy="0.32em">$0</text></g><g class="tick" opacity="1" transform="translate(0,331.6538461538462)"><line stroke="currentColor" x2="-6"></line><text fill="currentColor" x="-9" dy="0.32em">$50</text></g><g class="tick" opacity="1" transform="translate(0,252.80769230769232)"><line stroke="currentColor" x2="-6"></line><text fill="currentColor" x="-9" dy="0.32em">$100</text></g><g class="tick" opacity="1" transform="translate(0,173.96153846153848)"><line stroke="currentColor" x2="-6"></line><text fill="currentColor" x="-9" dy="0.32em">$150</text></g><g class="tick" opacity="1" transform="translate(0,95.1153846153846)"><line stroke="currentColor" x2="-6"></line><text fill="currentColor" x="-9" dy="0.32em">$200</text></g><g class="tick" opacity="1" transform="translate(0,16.26923076923076)"><line stroke="currentColor" x2="-6"></line><text fill="currentColor" x="-9" dy="0.32em">$250</text></g><text transform="rotate(-90)" y="150" x="-150" dy="-9.1em" text-anchor="end" stroke="black" font-size="20px">Cost</text></g><rect transform="translate(50,0)" class="bar" x="73.33333333333337" y="252.30769230769232" width="110" height="157.69230769230768" style="fill: orange;"></rect><rect transform="translate(50,0)" class="bar" x="256.66666666666674" y="94.6153846153846" width="110" height="315.3846153846154" style="fill: orange;"></rect><rect transform="translate(50,0)" class="bar" x="440.00000000000006" y="362.6923076923077" width="110" height="47.30769230769232" style="fill: orange;"></rect><rect transform="translate(50,0)" class="bar" x="623.3333333333334" y="331.1538461538462" width="110" height="78.84615384615381" style="fill: orange;"></rect><rect transform="translate(50,0)" class="bar" x="806.6666666666667" y="283.8461538461538" width="110" height="126.15384615384619" style="fill: orange;"></rect></svg>